<?xml version="1.0" standalone="no"?>
<!DOCTYPE svg PUBLIC "-//W3C//DTD SVG 20010904//EN"
 "http://www.w3.org/TR/2001/REC-SVG-20010904/DTD/svg10.dtd">
<svg version="1.0" xmlns="http://www.w3.org/2000/svg"
 width="481.000000pt" height="635.000000pt" viewBox="0 0 481.000000 635.000000"
 preserveAspectRatio="xMidYMid meet">

<g transform="translate(0.000000,635.000000) scale(0.100000,-0.100000)"
fill="#000000" stroke="none">
<path d="M0 3175 l0 -3175 2405 0 2405 0 0 3175 0 3175 -2405 0 -2405 0 0
-3175z m4590 2910 c0 -13 -21 -15 -125 -15 -104 0 -125 2 -125 15 0 13 21 15
125 15 104 0 125 -2 125 -15z m0 -80 c0 -13 -21 -15 -125 -15 -104 0 -125 2
-125 15 0 13 21 15 125 15 104 0 125 -2 125 -15z m0 -80 c0 -13 -21 -15 -125
-15 -104 0 -125 2 -125 15 0 13 21 15 125 15 104 0 125 -2 125 -15z m-2010
-135 c0 -5 -21 -9 -47 -8 l-48 1 45 7 c25 4 46 8 48 8 1 1 2 -2 2 -8z m-1590
-2855 l0 -215 -50 0 -50 0 0 215 0 215 50 0 50 0 0 -215z m1939 194 c24 -9 35
-9 44 0 16 16 47 13 47 -5 0 -50 -37 -65 -110 -44 -22 6 -38 6 -44 0 -14 -14
-56 -12 -56 3 0 7 7 23 16 35 17 25 52 28 103 11z m-1612 -113 c28 -24 28 -25
31 -160 l4 -136 -46 0 -46 0 0 112 c0 90 -3 115 -17 130 -22 24 -39 23 -68 -7
-23 -23 -25 -31 -25 -130 l0 -105 -45 0 -45 0 0 155 0 155 40 0 c29 0 40 -4
40 -15 0 -12 6 -11 33 5 46 28 108 26 144 -4z m343 2 c58 -40 75 -72 75 -142
0 -53 -5 -69 -28 -100 -16 -20 -41 -43 -57 -51 -65 -34 -176 -7 -214 50 -10
15 -20 51 -23 80 -7 71 23 137 76 165 51 27 129 26 171 -2z m687 2 c37 -22 41
-38 45 -192 l4 -108 -36 0 c-20 0 -41 5 -47 11 -8 8 -17 7 -34 -5 -37 -25
-102 -21 -138 10 -25 21 -31 33 -31 66 0 21 4 48 10 58 10 18 60 40 138 60 42
11 52 26 30 48 -18 18 -56 14 -78 -8 -21 -21 -55 -26 -80 -10 -12 7 -12 12 0
35 21 38 57 54 125 55 42 0 69 -6 92 -20z m327 5 c30 -15 74 -71 63 -82 -11
-11 -87 -15 -87 -5 0 17 -30 42 -51 42 -39 0 -59 -35 -59 -105 0 -52 4 -69 20
-85 32 -32 75 -24 91 16 9 25 50 33 79 14 22 -13 -10 -74 -48 -91 -25 -11 -28
-15 -16 -27 44 -43 -10 -95 -93 -90 -58 4 -72 28 -16 28 47 0 68 12 59 35 -4
13 -14 16 -36 13 -22 -3 -30 -1 -30 11 0 9 -15 23 -32 32 -96 47 -94 239 2
291 42 22 111 23 154 3z m336 0 c37 -19 43 -39 45 -165 1 -58 5 -113 10 -122
6 -16 1 -18 -38 -18 -25 0 -47 5 -49 11 -3 8 -14 7 -35 -5 -63 -32 -140 -12
-163 43 -25 61 12 122 83 136 109 22 121 30 91 59 -22 22 -54 20 -80 -5 -18
-17 -30 -20 -58 -15 l-36 7 15 29 c8 16 28 36 43 44 35 20 135 20 172 1z m350
-7 c78 -53 100 -137 58 -218 -45 -87 -139 -115 -229 -69 -103 52 -103 235 0
289 51 27 129 26 171 -2z m505 2 c37 -23 60 -64 70 -127 l7 -43 -106 0 c-116
0 -124 -5 -85 -54 24 -31 53 -33 76 -6 18 20 41 24 80 14 21 -6 21 -8 8 -34
-33 -63 -165 -81 -221 -29 -54 49 -71 150 -36 219 37 75 137 104 207 60z
m-2010 -7 c4 -10 18 -49 32 -88 14 -38 28 -73 32 -77 3 -4 21 35 40 87 l33 95
44 0 c24 0 44 -3 44 -7 0 -5 -26 -73 -58 -153 l-58 -145 -43 0 -42 0 -60 144
c-32 79 -59 148 -59 153 0 4 20 8 44 8 32 0 46 -5 51 -17z m1663 -2195 c17
-17 17 -689 0 -706 -9 -9 -269 -12 -1109 -12 -984 0 -1099 2 -1113 16 -14 13
-16 59 -16 349 0 290 2 336 16 349 14 14 129 16 1113 16 840 0 1100 -3 1109
-12z"/>
<path d="M1544 2968 c-27 -13 -44 -49 -44 -93 0 -48 18 -82 51 -96 83 -34 136
116 64 178 -29 25 -39 27 -71 11z"/>
<path d="M2248 2853 c-40 -11 -48 -18 -48 -37 0 -31 24 -50 55 -42 29 7 48 38
43 70 -3 23 -4 23 -50 9z"/>
<path d="M2893 2845 c-18 -8 -33 -21 -33 -29 0 -18 27 -46 45 -46 21 0 54 33
61 63 5 24 3 27 -17 27 -13 -1 -39 -7 -56 -15z"/>
<path d="M3244 2968 c-27 -13 -44 -49 -44 -93 0 -48 18 -82 51 -96 83 -34 136
116 64 178 -29 25 -39 27 -71 11z"/>
<path d="M3764 2972 c-13 -8 -34 -46 -34 -61 0 -7 24 -11 59 -11 56 0 59 1 54
23 -12 45 -49 69 -79 49z"/>
</g>
</svg>
