<?xml version="1.0" standalone="no"?>
<!DOCTYPE svg PUBLIC "-//W3C//DTD SVG 20010904//EN"
 "http://www.w3.org/TR/2001/REC-SVG-20010904/DTD/svg10.dtd">
<svg version="1.0" xmlns="http://www.w3.org/2000/svg"
 width="1915.000000pt" height="857.000000pt" viewBox="0 0 1915.000000 857.000000"
 preserveAspectRatio="xMidYMid meet">

<g transform="translate(0.000000,857.000000) scale(0.100000,-0.100000)"
fill="#000000" stroke="none">
<path d="M0 4285 l0 -4285 9490 0 9490 0 0 4285 0 4285 -9490 0 -9490 0 0
-4285z m15288 4133 c17 -17 17 -379 0 -396 -9 -9 -168 -12 -654 -12 -571 0
-644 2 -658 16 -13 13 -16 45 -16 194 0 149 3 181 16 194 14 14 87 16 658 16
486 0 645 -3 654 -12z m-4838 -128 c0 -28 3 -30 35 -30 32 0 35 2 35 30 0 17
5 30 10 30 6 0 10 -30 10 -70 0 -40 -4 -70 -10 -70 -5 0 -10 14 -10 30 0 28
-3 30 -35 30 -32 0 -35 -2 -35 -30 0 -16 -4 -30 -10 -30 -6 0 -10 30 -10 70 0
40 4 70 10 70 6 0 10 -13 10 -30z m1320 -5 c16 -19 5 -34 -12 -17 -17 17 -58
15 -58 -2 0 -8 14 -17 30 -21 30 -7 60 -29 60 -45 0 -18 -33 -40 -60 -40 -28
0 -60 22 -60 41 0 15 27 10 34 -6 3 -8 17 -15 31 -15 39 0 28 30 -15 44 -38
12 -54 51 -28 67 21 14 64 10 78 -6z m160 -5 c0 -14 7 -20 23 -20 30 0 47 -18
47 -50 0 -35 -17 -50 -57 -50 l-33 0 0 70 c0 40 4 70 10 70 6 0 10 -9 10 -20z
m980 5 c16 -19 5 -34 -12 -17 -16 16 -58 15 -58 -2 0 -7 14 -17 31 -22 79 -23
54 -100 -26 -80 -12 3 -26 13 -29 22 -10 25 1 29 23 10 22 -20 56 -18 56 3 0
8 -13 18 -30 23 -39 10 -57 35 -44 59 12 24 71 26 89 4z m320 5 c0 -5 -4 -10
-10 -10 -5 0 -10 5 -10 10 0 6 5 10 10 10 6 0 10 -4 10 -10z m-2591 -19 c8 -5
14 -24 14 -41 0 -34 -15 -50 -48 -50 -28 0 -45 19 -45 50 0 44 41 65 79 41z
m169 -43 c2 -29 -1 -48 -7 -48 -6 0 -11 18 -11 41 0 33 -3 40 -17 37 -13 -2
-19 -14 -21 -41 -4 -50 -22 -47 -22 4 0 33 -3 40 -17 37 -13 -2 -19 -14 -21
-41 -5 -55 -22 -45 -22 13 l0 50 68 -2 67 -3 3 -47z m100 40 c7 -7 12 -20 12
-30 0 -14 -8 -18 -35 -18 -19 0 -35 -5 -35 -11 0 -8 12 -9 37 -4 33 6 35 5 24
-9 -20 -24 -58 -20 -77 9 -15 23 -15 27 0 50 18 27 54 33 74 13z m971 -17 c8
-5 14 -24 14 -41 0 -34 -15 -50 -48 -50 -28 0 -45 19 -45 50 0 44 41 65 79 41z
m191 -1 c0 -5 -7 -10 -15 -10 -11 0 -15 -11 -15 -40 0 -29 -4 -40 -15 -40 -11
0 -15 12 -15 50 0 49 1 50 30 50 17 0 30 -4 30 -10z m88 -2 c7 -7 12 -20 12
-30 0 -14 -8 -18 -35 -18 -19 0 -35 -5 -35 -11 0 -8 12 -9 37 -4 33 6 35 5 24
-9 -20 -24 -58 -20 -77 9 -15 23 -15 27 0 50 18 27 54 33 74 13z m860 0 c7 -7
12 -20 12 -30 0 -14 -8 -18 -35 -18 -19 0 -35 -5 -35 -11 0 -8 12 -9 37 -4 33
6 35 5 24 -9 -20 -24 -58 -20 -77 9 -15 23 -15 27 0 50 18 27 54 33 74 13z
m119 -20 l10 -33 13 33 c11 30 30 44 30 22 0 -20 -33 -90 -42 -90 -5 0 -17 18
-25 40 -11 27 -22 40 -35 40 -14 0 -18 -8 -18 -40 0 -22 -4 -40 -10 -40 -5 0
-10 23 -10 50 l0 50 39 0 c34 0 39 -3 48 -32z m93 -18 c0 -27 -4 -50 -10 -50
-5 0 -10 23 -10 50 0 28 5 50 10 50 6 0 10 -22 10 -50z m98 33 c2 -9 -5 -11
-27 -7 -29 6 -31 5 -31 -25 0 -24 4 -31 20 -31 11 0 20 5 20 10 0 6 7 10 15
10 8 0 15 8 15 18 0 24 19 42 46 42 27 0 54 -25 54 -50 0 -43 -63 -67 -91 -34
-11 14 -13 14 -21 0 -5 -9 -17 -16 -26 -16 -14 0 -14 -2 -3 -9 18 -12 5 -31
-22 -31 -12 0 -17 4 -12 8 14 9 13 28 -2 44 -17 16 -17 60 -1 76 16 16 60 12
66 -5z m200 0 c2 -9 -6 -11 -30 -7 -23 5 -30 3 -23 -4 6 -5 19 -12 30 -14 14
-2 20 -11 20 -28 0 -22 -4 -25 -34 -25 -19 0 -36 6 -38 12 -3 9 4 11 26 7 20
-4 31 -2 31 5 0 6 -8 11 -19 11 -24 0 -45 25 -37 46 7 18 67 16 74 -3z m-7723
-203 c-3 -5 -27 -9 -53 -8 l-47 1 45 7 c25 4 49 8 53 8 5 1 5 -2 2 -8z m-1445
-3080 l0 -360 -80 0 -80 0 0 360 0 360 80 0 80 0 0 -360z m3229 330 c55 -21
91 -19 91 6 0 10 12 14 40 14 44 0 44 0 30 -52 -20 -71 -69 -83 -178 -46 l-65
22 -18 -22 c-11 -14 -28 -22 -49 -22 -32 0 -33 1 -27 38 8 46 47 82 90 82 18
0 56 -9 86 -20z m-2709 -182 c76 -38 84 -67 88 -305 l4 -203 -75 0 -76 0 -3
186 -3 186 -28 24 c-34 29 -62 30 -104 4 -44 -27 -53 -67 -53 -247 l0 -153
-75 0 -75 0 0 260 0 260 70 0 70 0 0 -32 0 -31 23 21 c58 55 161 68 237 30z
m575 -2 c55 -25 109 -80 133 -135 9 -22 16 -66 16 -111 0 -65 -4 -83 -29 -130
-55 -100 -144 -146 -265 -138 -78 6 -133 32 -183 87 -106 117 -69 347 68 418
77 41 185 45 260 9z m1169 -5 c58 -36 66 -66 66 -249 0 -108 5 -174 14 -206
l14 -47 -71 3 c-66 3 -72 5 -75 26 -2 12 -5 22 -8 22 -2 0 -28 -13 -57 -30
-129 -73 -277 -9 -277 119 0 88 43 126 176 156 139 32 144 34 144 58 0 39 -23
59 -73 64 -44 5 -49 3 -82 -32 -33 -34 -38 -36 -78 -30 -80 12 -79 11 -61 53
20 49 50 81 99 104 60 28 215 22 269 -11z m509 18 c49 -13 106 -64 128 -114
21 -47 18 -50 -66 -60 l-60 -6 -12 30 c-22 60 -111 65 -157 10 -23 -27 -26
-39 -26 -113 0 -70 4 -88 23 -117 45 -68 135 -62 165 11 12 28 23 40 37 39 29
0 105 -16 112 -23 3 -3 -2 -26 -11 -50 -20 -52 -84 -114 -127 -123 l-30 -6 29
-17 c59 -36 48 -106 -23 -140 -30 -15 -61 -20 -116 -20 -81 0 -103 8 -97 35 2
15 15 18 75 19 51 1 77 6 88 17 35 34 -13 66 -81 53 -35 -6 -38 -3 -25 31 7
16 1 23 -33 38 -52 23 -82 51 -109 102 -19 34 -22 57 -22 145 0 113 15 159 67
207 60 56 176 79 271 52z m560 0 c21 -5 51 -22 68 -37 37 -34 51 -107 43 -236
-5 -83 4 -185 21 -228 6 -16 0 -18 -64 -18 -71 0 -72 0 -77 29 l-6 29 -44 -31
c-61 -43 -148 -49 -213 -15 -105 54 -107 190 -5 250 17 10 78 29 135 41 100
22 104 23 107 50 4 35 -11 54 -49 62 -47 11 -89 -4 -108 -36 -15 -29 -18 -29
-71 -23 -30 3 -59 10 -63 14 -27 25 46 123 108 145 48 17 165 19 218 4z m601
-14 c89 -43 138 -121 144 -231 5 -92 -21 -157 -88 -217 -75 -67 -168 -84 -279
-51 -229 68 -226 426 4 512 46 17 173 10 219 -13z m842 1 c84 -39 134 -127
134 -238 l0 -48 -170 0 c-187 0 -186 0 -155 -60 34 -67 131 -78 163 -19 16 28
19 30 67 24 98 -12 102 -18 56 -82 -50 -69 -92 -88 -196 -88 -77 0 -96 3 -135
25 -53 30 -85 74 -107 149 -18 64 -13 157 12 218 52 125 202 179 331 119z
m-3288 -134 c29 -81 56 -158 59 -170 4 -18 21 17 68 145 l61 168 76 3 76 3
-100 -253 c-54 -139 -103 -257 -107 -261 -4 -4 -36 -7 -71 -5 l-62 3 -103 258
-103 257 76 0 77 0 53 -148z m4730 -1934 c9 -9 12 -101 12 -353 0 -252 -3
-344 -12 -353 -9 -9 -269 -12 -1109 -12 -984 0 -1099 2 -1113 16 -14 13 -16
59 -16 349 0 290 2 336 16 349 14 14 129 16 1113 16 840 0 1100 -3 1109 -12z"/>
<path d="M11934 8226 c-9 -24 4 -48 23 -44 12 2 18 12 18 28 0 29 -32 41 -41
16z"/>
<path d="M10584 8245 c-9 -23 3 -45 26 -45 16 0 20 7 20 30 0 23 -4 30 -20 30
-11 0 -23 -7 -26 -15z"/>
<path d="M10855 8250 c-4 -6 5 -10 20 -10 15 0 24 4 20 10 -3 6 -12 10 -20 10
-8 0 -17 -4 -20 -10z"/>
<path d="M11824 8225 c-9 -23 3 -45 26 -45 16 0 20 7 20 30 0 23 -4 30 -20 30
-11 0 -23 -7 -26 -15z"/>
<path d="M12105 8230 c-4 -6 5 -10 20 -10 15 0 24 4 20 10 -3 6 -12 10 -20 10
-8 0 -17 -4 -20 -10z"/>
<path d="M12965 8230 c-4 -6 5 -10 20 -10 15 0 24 4 20 10 -3 6 -12 10 -20 10
-8 0 -17 -4 -20 -10z"/>
<path d="M13364 8225 c-9 -23 3 -45 26 -45 16 0 20 7 20 30 0 23 -4 30 -20 30
-11 0 -23 -7 -26 -15z"/>
<path d="M5294 5010 c-34 -13 -72 -66 -79 -110 -22 -129 70 -232 167 -186 51
24 73 69 73 146 0 77 -22 122 -71 145 -35 17 -58 18 -90 5z"/>
<path d="M6500 4808 c-79 -14 -118 -28 -124 -43 -16 -42 43 -75 103 -57 49 15
73 42 69 79 -3 28 -4 29 -48 21z"/>
<path d="M7586 4803 c-75 -14 -96 -26 -96 -54 0 -22 37 -49 68 -49 65 0 110
43 100 97 -3 17 -7 18 -72 6z"/>
<path d="M8112 5000 c-46 -28 -65 -79 -60 -157 5 -76 28 -112 86 -133 37 -13
45 -12 77 3 52 25 75 69 75 147 0 75 -21 120 -69 145 -40 20 -69 19 -109 -5z"/>
<path d="M8993 5010 c-25 -10 -49 -43 -58 -82 l-7 -28 102 0 103 0 -7 33 c-3
17 -20 44 -36 60 -31 28 -58 33 -97 17z"/>
</g>
</svg>
